<svg xmlns="http://www.w3.org/2000/svg" viewBox="0 0 332 433"><defs/><path fill="#F9D7C7" fill-rule="nonzero" d="M147.64 25.16c10.55-8.67 20.44-18.4 32.52-24.99 1.85 1.66 3.68 3.34 5.49 5.06-2.72 4.33-6.61 7.69-10.09 11.37-15.36 15.26-30.93 30.33-45.59 46.29-3.47 3.7-7.36 7.08-10.03 11.46 12.02-11.17 23.74-22.69 36.44-33.11 12.67-10.35 25.07-21.15 39-29.81 1.86-.98 4.25-2.97 6.23-1.12 3.18 1.65 1.69 5.52 1.66 8.31 7.44.38 11.74-7.06 18.56-8.75 1.22 1.24 2.35 2.57 3.62 3.77 1.47.33 2.95-.28 4.43.04 1.38 1.4 2.66 2.89 4.03 4.29-5.27 6.69-12.37 11.59-18.6 17.3 2.08 1.1 5.22 1.31 6.32 3.6-.58 3.91-4.41 6.15-6.91 8.88 8.98-5.26 17.3-12.06 27.32-15.25 1.77.89 3.31 2.18 4.89 3.37-1.39 5.05-6.03 8.01-9.61 11.44C226.8 56.13 216.56 65.3 206 74.07c-1.63 1.43-2.93 3.18-4.21 4.9 9.87-4.27 17.44-12.32 26.99-17.14 2.3-.64 4.92.32 7.02-1.02 10.76-7.19 21.34-14.98 33.48-19.74 1.6 1.9 3.13 3.86 4.6 5.87-8.86 9.16-19.72 16.03-29.08 24.62 10.77-7.58 21.97-14.9 34.35-19.54 2.26 2.17 4.18 4.73 5 7.81.3 1.36 1.21 3.08-.1 4.2-4.25 4.41-9.47 7.73-14.04 11.79 2.05 2.45 3.91 5.06 5.49 7.85 3.1-1.54 6.45-2.57 9.94-2.41.81 1.27 1.69 2.5 2.34 3.87-.01 1.65-.84 3.17-1.34 4.72.95 1.99 3.2 4.1 1.95 6.45-2.24 3.13-5.6 5.18-8.52 7.62-5.74 4.72-11.85 8.96-17.61 13.65 2.1 1.75 3.9 3.83 4.9 6.4 2.98.95 6.62 3.9 5.29 7.39-3.81 4.21-8.58 7.43-12.71 11.33 1.05.67 1.93 2.03 3.29 1.98 1.82-.49 3.47-1.44 5.17-2.22 1.38.96 2.76 1.92 4.14 2.89 4.5-2.45 8.77-5.29 13.29-7.68 5.97-3.15 11.7-7.07 18.45-8.36 1.22 1.62 2.45 3.23 3.71 4.82-2.95 5.05-8.17 7.97-12.7 11.39 1.26 1.46 2.57 2.91 3.59 4.56-.67 4.55-5.93 5.87-8.54 9.05-.93 2.3-1.32 5-3.53 6.5-6.78 5.53-13.37 11.31-20.52 16.37 4.66-2.38 9.22-5.38 14.56-5.88 1.02 1.38 2.15 2.71 2.98 4.22.27 2.28-1.83 3.75-3.29 5.11-3.51 2.84-7.32 5.32-10.46 8.6 1.92 1.69 3.91 3.31 5.96 4.85 10.49-6.96 20.85-14.16 32-20.03 5.54-3.02 11.02-6.44 17.3-7.65 1.49 2.02 5.25 4.75 2.39 7.28-5.29 5.13-11.43 9.3-17.23 13.82-3.94 3.12-8.07 6-12.35 8.65 10.28-4.48 19.74-11.76 31.26-12.64 1.49 2.63 3.55 5.71 2.06 8.81-2.56 4.08-6.72 6.74-10.01 10.16-1.82 1.86-2.87 4.38-4.9 6.05-11.78 8.42-23.69 16.68-35.08 25.62.82 1.96 1.66 3.92 2.53 5.86 1.38.4 2.82.67 4.15 1.26 1.88 1.3 1.44 3.91 1.96 5.85 5.45-2.78 11.35-4.47 17.23-6.07 3.03-1.1 4.76 2.51 6.84 4.05-2.75 5.26-8.18 8-12.72 11.46-6.5 4.82-13.22 9.34-19.79 14.07.07 1.74.14 3.48.22 5.22-4.61 4.49-9.95 8.1-15 12.06 4.45-2.35 8.82-5.31 14.01-5.62.68 2.23 1.3 4.48 1.87 6.75-4.93 3.65-9.96 7.23-14.25 11.65.87.98 1.74 1.95 2.62 2.93-.37 1.89-.77 3.92-2.44 5.13-6.48 5.5-12.87 11.12-19.47 16.48 7.77-4.83 15.41-9.88 23-14.97 8.73-7.02 17.69-13.76 26.99-20.02 7.62-5.31 15.61-10.17 24.24-13.67 2.4 1.25 4.27 3.46 3.49 6.36-2.76 3.27-6.4 5.67-9.75 8.29-14.41 10.87-28.74 21.86-43.05 32.86.97 1.23 1.94 2.46 2.91 3.7 3.95-2.3 7.9-4.63 12.09-6.47 1.7 1.57 3.4 3.14 5.09 4.72-6.58 8.13-16.19 12.91-23.92 19.77 1.53 2.51 4.03 6.06 1.17 8.64-6.96 6.78-15.18 12.15-22.4 18.68 7.59-4.83 15.04-9.99 23.22-13.76 2.64-1.59 5.62.12 7.64 1.9-1.49 5.29-6.94 7.58-10.46 11.26-2.03 2.23.5 4.77 1.44 6.84-1.82 1.66-3.67 3.28-5.54 4.87.46 1.85 2.22 4.01.72 5.81-2.71 3.38-6.58 5.55-9.81 8.38-3.91 3.01-6.74 7.09-10.02 10.71-1.38-1.35-2.76-2.7-4.12-4.05-4.87 1.91-8.21 6.3-13.09 8.16-1.95.89-3.78-.71-5.59-1.23-1.74-.99-3.23 1.07-4.65 1.83-3.59 2.98-7.66 5.42-12.31 6.26-1.06-1.71-2.13-3.4-3.24-5.08-2.7-.14-5.06-1.42-7.15-3.05.39-1.71.58-3.58 1.87-4.88 4.6-5.45 10.2-9.92 15.22-14.96a385.82 385.82 0 00-31.6 24.5c-1.47 1.61-3.71 1.23-5.66 1.31-.84-1.18-1.67-2.35-2.52-3.51.36-1.24.73-2.44 1.1-3.66-2.01-2.26-3.96-4.75-4.17-7.89 4.22-3.94 8.23-8.09 12.58-11.89 2.69-2.12 3.72-5.48 5.03-8.5-7.22 6.29-14.28 12.76-21.47 19.08-7.7 6.56-14.48 14.14-22.29 20.57-1.51 1.11-3.09 2.48-5.06 2.52-1.72-.9-3.28-2.04-4.87-3.11.76-5.83 6.05-9.34 9.63-13.49-2.04-1.37-4.29-2.65-5.61-4.81.23-3.31 2.76-5.74 4.55-8.32-5.46 4.58-9.89 10.79-16.85 13.23-1.55-1.9-4.49-3.72-3.48-6.57 1.97-3.7 6.81-5.92 6.51-10.63-6.37 3.79-10.07 10.74-16.14 14.88-1.91.09-3.79-.27-5.66-.51-3.57 3-6.31 6.97-10.29 9.46-2.31-.54-4.41-1.71-6.57-2.64.98-3.24 3.01-5.98 5.39-8.33 9.83-10.17 19.9-20.11 30.27-29.73-1.32-.52-2.64-1.02-3.96-1.53-10.92 10.59-21.74 21.3-32.42 32.14-6 6.3-12.5 12.14-18.1 18.83-1.45 1.77-3.29 3.16-5.2 4.4-1.63-.93-3.13-2.41-5.07-2.54-1.79.68-3.4 1.76-5.04 2.74-1.28-1.2-2.56-2.39-3.85-3.56-.06-5.59 5-9.07 8.09-13.12 5.88-7.42 13.01-13.83 18.12-21.85 3.64-5.28 8.48-9.61 11.92-15.04 7.99-12.09 18.54-22.12 28.27-32.74 31.15-31.96 63.72-62.52 97.45-91.72 6.52-5.75 13.64-10.83 19.83-16.94-23.83 19.42-47.58 38.95-70.41 59.55-6.81 5.48-12.64 12.01-19.36 17.59-13.57 13.12-27.4 25.98-40.35 39.71-1.81 1.49-3.61 3.98-6.22 3.69-2.67-1.25-4.02-4.01-5.33-6.47-5.26.26-6.54 6.89-11.15 8.36-1.95-.21-3.85-.73-5.75-1.17.1-1.56.19-3.13.29-4.69-1.22-.89-2.47-1.76-3.69-2.65-3.44 2.9-5.65 6.97-9.09 9.85-3.29 1.79-6.43 3.9-8.53 7.09-2.71.06-4.96-1.43-7.08-2.93.82-1.68 1.59-3.39 2.75-4.86 9.23-11.08 18.67-21.99 28.2-32.82-1.75-3.06-3.68-6-5.92-8.72-4.29 4.74-7.89 10.34-13.41 13.78-1.58-1.75-3.16-3.49-4.76-5.22 4.35-6.5 10.06-11.92 14.93-18.01 5.22-6.49 11.57-12.07 16.16-19.06-8.86 7.9-15.67 17.85-24.75 25.52-1.53 1.29-3.68 1-5.53 1.33-4.07 3.71-6.88 8.51-10.59 12.53-2.41 2.78-5.87.17-8.39-.96.9-2.15 1.84-4.28 2.83-6.37-2.14-1.19-4.25-2.44-6.32-3.74.47-1.55.95-3.09 1.42-4.63-1.17-.82-2.33-1.63-3.49-2.44 3.38-7.22 9.5-12.57 13.89-19.12-1.99-1.14-3.99-2.26-5.99-3.37 1.54-4.55 4.75-8.18 7.62-11.92 12.6-15.7 25.57-31.11 37.94-46.99 3.05-3.95 7.04-7.32 8.67-12.19-5.75 4.89-10.09 11.13-15.26 16.58-8 8.7-14.86 18.44-23.21 26.81-2.29 2.77-5.99 1.35-8.86.6.21-1.78.09-3.72 1.12-5.28 3.21-5.24 7.46-9.72 11.22-14.55-2.44-2.02-4.63-4.34-6.29-7.05-2.49 2.62-5.59.77-8.23-.46.82-2.66 2.52-4.86 4.33-6.92 2.58-2.62 2.12-6.75 4.58-9.45 10.47-13.16 21.73-25.66 32.82-38.28 24.97-28.31 50.93-55.84 79.29-80.79 9.39-8.93 18.99-17.63 28.87-26.02 4.77-4.3 9.95-8.16 14.22-12.99-26.64 18.27-50.95 39.71-73.88 62.39-17.35 17.71-33.61 36.43-49.9 55.1-7.95 10.03-16.65 19.45-24.28 29.74-9.87 11.54-19.2 23.53-28.72 35.36-2.33 2.84-5.03 5.35-7.61 7.95-2.13-.78-4.26-1.55-6.39-2.31.51-2.66 1.46-5.24 3.16-7.37 11.5-16.08 23.93-31.47 36.38-46.81 26.9-33.23 56.04-64.59 86.72-94.35 7.16-6.92 14.79-13.35 21.45-20.76-11.95 10.06-23.23 20.88-34.14 32.05-12.44 12.58-25.03 25.02-36.76 38.27-4.75 5.56-10.03 10.65-14.59 16.38-4.2 5.43-9.28 10.12-13.33 15.67-15.51 18.55-30.95 37.19-45.32 56.63-2.03 2.89-4.2 5.7-6.73 8.17-2.02-.95-4.05-1.88-6.08-2.79 1.88-6.25 7.15-10.57 10.61-15.92-1-1.24-2.51-1.91-3.53-3.13 2.76-5.34 6.97-9.67 10.52-14.46 1.56-1.92 1.06-4.55 1.3-6.84-4.14 5.27-8.56 10.31-12.46 15.77-2.73 3.8-5.98 7.18-9.44 10.33-2-.9-3.99-1.79-5.99-2.68C1.5 222.45 5 218.81 7.9 214.9c5.47-6.88 10.62-14.01 16.31-20.72 1.92-2.19 3.63-4.55 5.09-7.07-2.05-.78-4.11-1.56-6.18-2.32.14-2.13.18-4.37 1.36-6.23 4.25-7.54 9.72-14.28 14.81-21.25 12.7-16.55 25.44-33.08 39.15-48.81 7.57-9.1 15.62-17.77 23.21-26.84 3.11-3.69 6.84-6.83 9.66-10.77-17.11 16.33-33.15 33.76-49.09 51.23-3.73 4.29-7.59 8.49-11.72 12.41-2.26 2.5-5.62.35-8.26-.19.16-1.93.24-3.98 1.46-5.59 4.7-7.24 10.83-13.39 15.91-20.34-1.32-1.45-3.56-2.43-4.03-4.44 1.75-3.76 4.92-6.59 7.45-9.81-.78-1.1-1.55-2.21-2.32-3.32 2.99-4.46 4.29-10.01 8.28-13.78 3.36-3.35 6.13-7.23 9.5-10.58 6.86-6.82 12.03-15.32 19.84-21.18 1.75-1.41 4.14-.72 6.21-.82 4.92-4.72 9.6-9.9 15.66-13.2 1.53.58 3.04 1.27 4.67 1.49 5.93-4.3 10.65-10.18 16.96-13.98 2.24-1.44 4.04 1.17 5.68 2.34.03 1.01.1 3.03.13 4.03m6.9 128.36c-13.09 12.63-25.54 25.89-37.69 39.43-6.3 7.06-13.61 13.43-18.52 21.6 2.38-2.03 4.61-4.24 6.6-6.65 19.09-22.47 39.19-44.09 60.7-64.26 4.22-3.86 8.64-7.54 12.44-11.83-8.29 6.71-16.01 14.13-23.53 21.71m30.16 39.26c-7.41 6.61-15.19 12.9-21.61 20.51 3.11-1.85 5.81-4.26 8.38-6.77 12.07-10.67 24-21.49 36.44-31.72 7.87-7.19 16.6-13.34 24.46-20.54-16.87 11.56-32.54 24.78-47.67 38.52m99.16 26.53c.54.21 1.62.65 2.16.86 4.53-1.44 8.29-4.55 12.66-6.38 8.09-3.1 14.58-9.11 20.6-15.16-12.48 5.66-24.07 13.05-35.42 20.68m-76.89 83.59c-14.43 11.9-29.21 23.4-42.86 36.22-11.84 11.46-22.9 23.69-34.28 35.61 9.89-9.08 19.65-18.29 29.66-27.23 20.06-18.4 41.2-35.56 62.54-52.44 13.34-10.38 26.92-20.46 40.15-30.97-20.01 10.48-37.36 25.15-55.21 38.81z"/></svg>